<?xml version="1.0" encoding="utf-8"?>
<!-- Generator: Adobe Illustrator 16.0.0, SVG Export Plug-In . SVG Version: 6.00 Build 0)  -->
<!DOCTYPE svg PUBLIC "-//W3C//DTD SVG 1.1//EN" "http://www.w3.org/Graphics/SVG/1.1/DTD/svg11.dtd">
<svg version="1.1" id="Layer_1" xmlns="http://www.w3.org/2000/svg" xmlns:xlink="http://www.w3.org/1999/xlink" x="0px" y="0px"
	 width="342.38px" height="103.003px" viewBox="0 0 342.38 103.003" enable-background="new 0 0 342.38 103.003"
	 xml:space="preserve">
<polygon fill="#C22B27" points="66.381,33 92.381,33 92.381,24 66.381,24 66.381,15 92.381,15 92.381,7 65.971,7 57.381,7 
	57.381,15.433 57.381,51 66.381,51 "/>
<polygon fill="#C22B27" points="94.427,64.301 89.982,56.729 66.382,71.345 66.382,58 57.382,58 57.382,102 66.382,102 
	66.382,88.387 89.982,103.003 94.529,95.431 69.125,79.866 "/>
<path fill="#C22B27" d="M16.401,71h21.071l7.525,31.597l8.881-2.032L31.107,5.556L22.226,7.7L0,100.687l8.881,1.947L16.401,71z
	 M26.925,27.106L35.284,62H18.583L26.925,27.106z"/>
<path fill="#C22B27" d="M143.381,90.411c0,7.145-3.59,8.5-6.373,8.5c-1.467,0-3.627-0.79-3.627-4.551V82h-4v12.622
	c0,4.927,2.219,7.824,7.446,7.824c1.618,0,3.78-0.618,5.661-2.385l0.883,1.939h4.01V82h-4V90.411z"/>
<path fill="#C22B27" d="M177.409,87.702c0.075-1.993,2.295-2.293,3.836-2.293c3.387,0,4.74,1.39,4.965,1.616l2.521-2.256
	c-0.339-0.452-2.783-2.896-7.485-2.896c-3.535,0-7.484,1.58-7.484,5.83c0,7.973,12.148,4.852,12.148,8.876
	c0,1.957-2.294,2.333-3.798,2.333c-2.032,0-4.325-0.265-5.755-2.184l-3.197,1.13c0.451,1.09,2.407,4.588,8.876,4.588
	c3.95,0,7.673-1.769,7.673-6.094C189.708,88.643,177.409,91.991,177.409,87.702"/>
<path fill="#C22B27" d="M162.969,81.872c-1.617,0-3.763,0.459-5.642,2.228L156.46,82h-4.079v20h4v-8.092c0-7.145,3.59-8.5,6.373-8.5
	c1.466,0,3.627,0.79,3.627,4.552V102h4V89.696C170.381,84.769,168.198,81.872,162.969,81.872"/>
<polygon fill="#C22B27" points="125.958,82 120.693,82 112.382,91.049 112.382,75 108.382,75 108.382,102 112.382,102 
	112.382,96.616 116.293,92.5 122.798,102 127.802,102 119.226,89.461 "/>
<path fill="#C22B27" d="M198.381,75h-4v7h-4v4h4v10.126c0,5.002,1.734,6.32,4.895,6.32c1.203,0,3.105-0.189,4.105-0.452v-3.498
	c0,0-0.789,0.226-2.143,0.226c-1.806,0-2.857-0.677-2.857-2.933V86h5v-4h-5V75z"/>
<path fill="#C22B27" d="M342.381,54.191c0-5.867-3.609-9.929-9.364-9.929c-6.056,0-9.797,4.4-9.797,10.305
	c0,6.319,3.786,10.268,9.882,10.268c3.874,0,7.085-1.919,8.626-4.626l-3.039-1.805c-1.015,1.729-2.742,2.747-5.562,2.747
	c-3.649,0-5.451-1.151-5.865-5.151h15.119V54.191z M327.375,52c0.641-3,2.896-4.626,5.754-4.626c2.972,0,5.229,2.626,5.756,4.626
	H327.375z"/>
<path fill="#C22B27" d="M315.381,47.046c-1-1.618-3.161-2.785-5.604-2.785c-2.748,0-5.268,0.978-7.035,2.896
	c-1.805,1.918-2.896,4.514-2.896,7.372c0,2.858,1.09,5.453,2.856,7.372c1.545,1.655,3.649,2.933,7.072,2.933
	c2.03,0,3.686-1.113,4.926-2.317L315.38,64h4.001V38h-4V47.046z M313.95,59.269c-1.053,1.13-2.557,1.919-4.174,1.919
	c-3.535,0-5.83-3.235-5.83-6.657c0-3.196,2.144-6.62,5.83-6.62c1.579,0,3.083,0.639,4.213,1.88c1.053,1.167,1.653,2.897,1.653,4.74
	C315.642,56.374,315.042,58.103,313.95,59.269"/>
<path fill="#C22B27" d="M283.909,47.095L283.006,45h-3.625v19h4v-7.251c0-7.034,3.21-8.951,6.482-8.951c0.414,0,0.518,0,1.518,0.15
	v-3.536c-1-0.075-1.178-0.051-1.705-0.051C288.021,44.361,285.676,45.289,283.909,47.095"/>
<path fill="#C22B27" d="M265.292,44.262c-5.943,0-9.929,5.078-9.929,10.305c0,5.642,4.399,10.268,9.929,10.268
	c5.868,0,9.855-4.662,9.855-10.268C275.147,49.34,271.16,44.262,265.292,44.262 M265.292,61.3c-3.836,0-5.867-3.234-5.867-6.732
	c0-3.572,2.182-6.77,5.867-6.77c3.799,0,5.793,3.384,5.793,6.77C271.084,58.065,268.865,61.3,265.292,61.3"/>
<path fill="#C22B27" d="M242.801,44.262c-5.942,0-9.93,5.078-9.93,10.305c0,5.642,4.4,10.268,9.93,10.268
	c5.866,0,9.854-4.662,9.854-10.268C252.656,49.34,248.667,44.262,242.801,44.262 M242.801,61.3c-3.836,0-5.869-3.234-5.869-6.732
	c0-3.572,2.183-6.77,5.869-6.77c3.799,0,5.791,3.384,5.791,6.77C248.592,58.065,246.374,61.3,242.801,61.3"/>
<polygon fill="#C22B27" points="221.965,59.405 216.437,45 212.075,45 219.935,64 223.959,64 231.82,45 227.495,45 "/>
<path fill="#C22B27" d="M191.7,50.091c0.074-1.992,2.295-2.293,3.836-2.293c3.386,0,4.738,1.39,4.965,1.616l2.519-2.256
	c-0.338-0.451-2.782-2.896-7.483-2.896c-3.535,0-7.485,1.58-7.485,5.83c0,7.973,12.149,4.852,12.149,8.875
	c0,1.958-2.295,2.334-3.8,2.334c-2.03,0-4.325-0.266-5.755-2.184l-3.197,1.13c0.452,1.089,2.408,4.588,8.877,4.588
	c3.949,0,7.674-1.768,7.674-6.094C203.999,51.032,191.7,54.38,191.7,50.091"/>
<path fill="#C22B27" d="M180.381,47.046c-1-1.618-3.217-2.785-5.662-2.785c-2.746,0-5.295,0.978-7.062,2.896
	c-1.804,1.918-2.911,4.514-2.911,7.372c0,2.858,1.085,5.453,2.852,7.372c1.543,1.655,3.645,2.933,7.066,2.933
	c2.032,0,3.686-1.113,4.926-2.317L180.266,64h4.115V38h-4V47.046z M178.835,59.269c-1.052,1.13-2.557,1.919-4.175,1.919
	c-3.533,0-5.829-3.235-5.829-6.657c0-3.196,2.146-6.62,5.829-6.62c1.581,0,3.085,0.639,4.213,1.88
	c1.053,1.167,1.656,2.897,1.656,4.74C180.53,56.374,179.926,58.103,178.835,59.269"/>
<path fill="#C22B27" d="M157.381,52.349V64h4V52.085c0-4.926-2.254-7.823-7.481-7.823c-1.618,0-3.798,0.764-5.678,2.533L147.321,45
	h-3.94v19h4v-7.701c0-7.147,3.589-8.501,6.373-8.501C155.22,47.798,157.381,48.588,157.381,52.349"/>
<path fill="#C22B27" d="M139.423,54.567c0-5.228-3.987-10.305-9.854-10.305c-5.942,0-9.928,5.078-9.928,10.305
	c0,5.642,4.399,10.268,9.928,10.268C135.436,64.835,139.423,60.173,139.423,54.567 M129.569,61.3c-3.836,0-5.867-3.234-5.867-6.732
	c0-3.572,2.182-6.77,5.867-6.77c3.799,0,5.792,3.384,5.792,6.77C135.361,58.065,133.142,61.3,129.569,61.3"/>
<path fill="#C22B27" d="M109.381,64h5V48h3v-3h-3.458c0-3,0.762-3.622,2.417-3.622c0.526,0,1.041-0.125,2.041,0.026v-3.685
	c-1-0.15-2.154-0.065-3.019-0.065c-3.686,0-5.501,1.346-5.501,7.346h-3.48v3h3V64z"/>
<path fill="#C22B27" d="M263.985,25.062c0,0.225,0.038,1.938,1.356,1.938h3.04v-0.792c-1,0-1-0.526-1-0.789V14.023
	c0-4.851-2.922-7.372-7.508-7.372c-3.01,0-5.824,1.166-7.553,3.461l2.711,2.331c1.164-1.618,3.066-2.369,4.985-2.369
	c2.331,0,3.845,1.279,3.845,2.596c0,1.127-0.934,1.843-2.964,1.918c-5.004,0.188-9.702,0.789-9.702,6.507
	c0,4.361,3.5,6.159,7.336,6.159C261.502,27.254,262.745,26.303,263.985,25.062 M255.298,21.095c0-1.053,0.517-3.009,4.241-3.198
	c1.24-0.075,3.842,0.114,4.842-1.053v1.129c0,3.271-0.817,5.979-5.67,5.979C256.118,23.952,255.298,22.033,255.298,21.095"/>
<path fill="#C22B27" d="M201.672,6.651c-6.055,0-9.969,4.4-9.969,10.306c0,6.318,3.703,10.268,9.796,10.268
	c3.874,0,7.043-1.919,8.584-4.626l-3.062-1.805c-1.015,1.73-2.752,2.551-5.574,2.551c-3.647,0-5.459-1.345-5.873-5.345h15.807
	v-1.419C210.381,10.715,207.426,6.651,201.672,6.651 M195.688,15c0.639-3,2.896-4.626,5.754-4.626c2.972,0,5.228,1.626,5.754,4.626
	H195.688z"/>
<path fill="#C22B27" d="M311.563,23.69c-2.031,0-4.326-0.264-5.755-2.183l-3.196,1.13c0.452,1.09,2.407,4.588,8.877,4.588
	c3.947,0,7.672-1.77,7.672-6.094c0-7.71-12.299-4.362-12.299-8.65c0.075-1.993,2.295-2.294,3.836-2.294
	c3.385,0,4.738,1.391,4.965,1.617l2.52-2.257c-0.338-0.45-2.783-2.896-7.484-2.896c-3.535,0-7.483,1.58-7.483,5.83
	c0,7.973,12.147,4.851,12.147,8.875C315.362,23.314,313.069,23.69,311.563,23.69"/>
<path fill="#C22B27" d="M168.043,23.69c-2.029,0-4.325-0.264-5.753-2.183l-3.197,1.13c0.451,1.09,2.407,4.588,8.875,4.588
	c3.951,0,7.675-1.77,7.675-6.094c0-7.71-12.299-4.362-12.299-8.65c0.075-1.993,2.295-2.294,3.835-2.294
	c3.386,0,4.74,1.391,4.965,1.617l2.521-2.257c-0.341-0.45-2.783-2.896-7.486-2.896c-3.535,0-7.484,1.58-7.484,5.83
	c0,7.973,12.148,4.851,12.148,8.875C171.842,23.314,169.547,23.69,168.043,23.69"/>
<path fill="#C22B27" d="M237.661,27.226c2.03,0,3.687-0.81,4.928-2.013L243.264,27h4.117V0h-4v9.436
	c-1-1.618-3.217-2.784-5.663-2.784c-2.745,0-5.294,0.978-7.062,2.896c-1.806,1.919-2.91,4.514-2.91,7.372s1.082,5.454,2.851,7.372
	C232.14,25.946,234.239,27.226,237.661,27.226 M237.661,10.3c1.58,0,3.084,0.64,4.213,1.88c1.053,1.167,1.654,2.897,1.654,4.74
	s-0.602,3.573-1.691,4.738c-1.053,1.131-2.559,1.919-4.176,1.919c-3.537,0-5.828-3.234-5.828-6.657
	C231.833,13.723,233.975,10.3,237.661,10.3"/>
<path fill="#C22B27" d="M292.083,6.651c-1.09,0-3.573,0.527-5.53,3.01c-1.429-2.595-4.175-3.01-5.867-3.01
	c-1.392,0-2.916,0.532-4.345,2.075L275.683,7h-4.302v20h4v-9.216c0-3.384,0.726-7.484,4.714-7.484c2.972,0,3.286,3.122,3.286,5.117
	V27h5v-8.312c0-6.996,1.525-8.389,3.97-8.389c2.82,0,3.03,2.068,3.03,4.665V27h4V15.417C299.381,12.03,299.417,6.651,292.083,6.651"
	/>
<path fill="#C22B27" d="M218.381,19.139c0-7.034,3.21-8.952,6.48-8.952c0.414,0,1.52,0,1.52,0.151V6.802
	c0-0.075-0.792-0.151-1.318-0.151c-1.654,0-3.687,0.833-5.455,2.64L218.782,7h-4.4v20h4V19.139z"/>
<path fill="#C22B27" d="M117.382,14.589c-5.002,0.188-9.703,0.788-9.703,6.507c0,4.361,3.497,6.13,7.335,6.13
	c2.97,0,4.212-0.922,5.452-2.163c0,0.225,0.039,1.938,1.355,1.938h2.56v-0.792V25.42V14.023c0-4.852-3.18-7.372-7.768-7.372
	c-3.008,0-5.953,1.166-7.682,3.461l2.646,2.331c1.165-1.618,3.034-2.37,4.952-2.37c2.333,0,3.831,1.279,3.831,2.598
	C120.36,13.798,119.415,14.514,117.382,14.589 M120.381,16.845v1.128c0,3.273-0.578,5.98-5.429,5.98
	c-2.596,0-3.204-1.919-3.204-2.857c0-1.054,0.292-3.01,4.016-3.198C117.005,17.822,119.381,18.012,120.381,16.845"/>
<path fill="#C22B27" d="M132.381,17.784c0-3.384,0.728-7.484,4.713-7.484c2.972,0,3.287,3.121,3.287,5.116V27h4v-8.312
	c0-6.996,2.026-8.388,4.47-8.388c2.821,0,3.53,2.068,3.53,4.664V27h4V15.416c0-3.386-0.223-8.765-7.558-8.765
	c-1.091,0-3.704,0.527-5.659,3.01c-1.43-2.595-4.241-3.01-5.933-3.01c-1.392,0-2.948,0.532-4.376,2.075L132.164,7h-3.782v20h4
	V17.784z"/>
<path fill="#C22B27" d="M180.381,20.906c0,5.002,1.734,6.319,4.895,6.319c1.203,0,3.105-0.189,4.105-0.452v-3.498
	c0,0-0.79,0.226-2.145,0.226c-1.804,0-2.855-0.676-2.855-2.933V11h5V7h-5V0h-4v7h-4v4h4V20.906z"/>
</svg>
