<?xml version="1.0" encoding="UTF-8"?>
<svg width="96px" height="146px" viewBox="0 0 96 146" version="1.1" xmlns="http://www.w3.org/2000/svg" xmlns:xlink="http://www.w3.org/1999/xlink">
    <title>logo-mondriaan-fonds 2</title>
    <g id="Page-1" stroke="none" stroke-width="1" fill="none" fill-rule="evenodd">
        <g id="logo-mondriaan-fonds" fill="#FE0000" fill-rule="nonzero">
            <path d="M94,91.83 L94,0 L72.68,0 L48.52,65.41 L24.48,0 L2,0 L2,91.83 L18.15,91.83 L18.15,25.52 L41.8,90.52 L54.07,90.52 L77.85,26.3 L77.85,91.83 L94,91.83 Z M70.86,138.6 C70.8310509,137.148228 69.6896698,135.963283 68.24,135.88 C67.3,135.73 67.06,135.71 66.19,135.6 C65.906304,135.631402 65.6227096,135.540079 65.4106471,135.349032 C65.1985847,135.157984 65.0782673,134.885423 65.08,134.6 C65.0991537,134.146772 65.3921679,133.750806 65.82,133.6 C66.1388979,133.479549 66.4797966,133.428414 66.82,133.45 C67.2798228,133.436696 67.7284161,133.593347 68.08,133.89 C68.3231406,134.131246 68.4629877,134.457556 68.47,134.8 L70.67,134.8 C70.6465672,134.050534 70.3433209,133.337013 69.82,132.8 C69.0129415,132.03476 67.9313585,131.627364 66.82,131.67 C65.7579871,131.640722 64.7211022,131.995819 63.9,132.67 C63.2522322,133.20225 62.8837898,134.00177 62.9,134.84 C62.9316667,136.109762 63.8503101,137.182904 65.1,137.41 C65.95,137.6 66.91,137.65 67.76,137.78 C68.3122847,137.78 68.76,138.227715 68.76,138.78 C68.76,139.84 67.58,140 66.76,140 C66.2370835,140.04042 65.7175311,139.887401 65.3,139.57 C64.9774961,139.281719 64.7891695,138.872471 64.78,138.44 L62.62,138.44 C62.6414434,139.290108 63.0014254,140.096468 63.62,140.68 C64.4696324,141.439113 65.5816272,141.837279 66.72,141.79 C67.9122342,141.870683 69.0889332,141.483233 70,140.71 C70.5555552,140.151059 70.8558544,139.387648 70.83,138.6 M58.29,136.75 C58.29,138.14 57.92,139.86 56.11,139.86 C55.5010592,139.871204 54.9240343,139.588276 54.56,139.1 C54.1124547,138.40124 53.8988187,137.578216 53.95,136.75 C53.8996184,135.928152 54.1133605,135.111727 54.56,134.42 C54.9240343,133.931724 55.5010592,133.648796 56.11,133.66 C57.92,133.66 58.29,135.36 58.29,136.75 M60.49,141.58 L60.49,128.22 L58.21,128.22 L58.21,132.62 C57.5423016,131.971145 56.6283893,131.639806 55.7,131.71 C54.8526134,131.687199 54.0242285,131.963327 53.36,132.49 C52.1567221,133.578899 51.5222264,135.161449 51.64,136.78 C51.5318532,138.36674 52.1586158,139.915213 53.34,140.98 C54.0056773,141.514389 54.8364295,141.800733 55.69,141.79 C56.7452426,141.844746 57.7568746,141.363375 58.38,140.51 L58.53,141.57 L60.53,141.57 L60.49,141.58 Z M49.54,141.58 L49.54,135.16 C49.6122431,133.668472 48.679808,132.312241 47.2613065,131.845628 C45.842805,131.379016 44.2873208,131.916853 43.46,133.16 L43.33,132 L41.39,132 L41.39,141.63 L43.7,141.63 L43.7,137.71 C43.6352854,136.841327 43.7405837,135.96837 44.01,135.14 C44.2553681,134.427388 44.9166324,133.941399 45.67,133.92 C46.89,133.92 47.26,134.61 47.26,135.73 L47.26,141.63 L49.57,141.63 L49.54,141.58 Z M36.8,136.77 C36.8776317,137.635857 36.6357592,138.500195 36.12,139.2 C35.7347342,139.590871 35.208826,139.810938 34.66,139.810938 C34.111174,139.810938 33.5852658,139.590871 33.2,139.2 C32.287838,137.711999 32.287838,135.838001 33.2,134.35 C33.5781435,133.946099 34.1067114,133.716894 34.66,133.716894 C35.2132886,133.716894 35.7418565,133.946099 36.12,134.35 C36.6342357,135.046731 36.8760753,135.907396 36.8,136.77 M39.15,136.77 C39.2143397,135.485765 38.8051369,134.222574 38,133.22 C37.1444635,132.264476 35.9225633,131.718405 34.64,131.718405 C33.3574367,131.718405 32.1355365,132.264476 31.28,133.22 C29.780178,135.352715 29.780178,138.197285 31.28,140.33 C32.1355365,141.285524 33.3574367,141.831595 34.64,141.831595 C35.9225633,141.831595 37.1444635,141.285524 38,140.33 C38.7979777,139.324595 39.1999749,138.061683 39.13,136.78 M29.66,130.06 L29.66,128.2 C29.066378,128.063875 28.4590209,127.996764 27.85,128 C27.0087041,127.923968 26.1743383,128.206143 25.5518832,128.777203 C24.929428,129.348262 24.5765713,130.155282 24.58,131 L24.58,132 L23,132 L23,133.9 L24.63,133.9 L24.63,141.62 L26.94,141.62 L26.94,133.9 L29.5,133.9 L29.5,132 L26.93,132 L26.93,131.11 C26.9093664,130.779386 27.0374718,130.456834 27.2793171,130.230467 C27.5211624,130.0041 27.8514707,129.897577 28.18,129.94 C28.6871706,129.937554 29.1932223,129.987824 29.69,130.09 M93.38,117.4 L93.38,110.98 C93.4522431,109.488472 92.519808,108.132241 91.1013065,107.665628 C89.682805,107.199016 88.1273208,107.736853 87.3,108.98 L87.13,107.74 L85.21,107.74 L85.21,117.37 L87.52,117.37 L87.52,113.45 C87.4565612,112.581356 87.5618299,111.708644 87.83,110.88 C88.0753681,110.167388 88.7366324,109.681399 89.49,109.66 C90.71,109.66 91.08,110.35 91.08,111.48 L91.08,117.38 L93.39,117.38 L93.38,117.4 Z M80.1,113.57 C80.1144935,114.204673 79.8503348,114.813864 79.377126,115.237059 C78.9039172,115.660254 78.269122,115.855006 77.64,115.77 C77.2990589,115.797484 76.9615948,115.685175 76.705115,115.45887 C76.4486351,115.232564 76.295182,114.91171 76.28,114.57 C76.328133,113.844073 76.9428469,113.28685 77.67,113.31 L80.11,113.13 L80.11,113.57 L80.11,113.57 L80.1,113.57 Z M83.18,117.29 L83.18,115.59 C83.083618,115.600491 82.986382,115.600491 82.89,115.59 C82.5,115.59 82.35,115.42 82.35,114.98 L82.35,111.41 C82.3780971,110.751549 82.2831402,110.093633 82.07,109.47 C81.52,108.03 80.07,107.47 78.47,107.47 C76.33,107.47 74.61,108.47 74.47,110.6 L76.7,110.6 C76.7271224,110.174454 76.935265,109.780921 77.2717489,109.518999 C77.6082328,109.257076 78.0408103,109.151868 78.46,109.23 C79.77,109.23 80.09,109.84 80.09,110.75 L80.09,111.34 L77.26,111.54 C75.43,111.67 74.01,112.73 74.01,114.54 C74.01,116.11 75.19,117.54 77.48,117.54 C78.6360163,117.593194 79.7384718,117.049518 80.4,116.1 C80.4842995,116.919194 81.2094409,117.519771 82.03,117.45 C82.4262431,117.453515 82.8174262,117.360866 83.17,117.18 M69.71,113.46 C69.7244935,114.094673 69.4603348,114.703864 68.987126,115.127059 C68.5139172,115.550254 67.879122,115.745006 67.25,115.66 C66.9090589,115.687484 66.5715948,115.575175 66.315115,115.34887 C66.0586351,115.122564 65.905182,114.80171 65.89,114.46 C65.938133,113.734073 66.5528469,113.17685 67.28,113.2 L69.72,113.02 L69.72,113.46 L69.72,113.46 L69.71,113.46 Z M72.79,117.18 L72.79,115.48 C72.693618,115.490491 72.596382,115.490491 72.5,115.48 C72.11,115.48 71.96,115.31 71.96,114.87 L71.96,111.3 C71.9873971,110.641584 71.8924587,109.983797 71.68,109.36 C71.13,107.92 69.68,107.36 68.08,107.36 C65.94,107.36 64.22,108.36 64.08,110.49 L66.31,110.49 C66.3375057,110.066551 66.5442554,109.674917 66.8783865,109.41334 C67.2125175,109.151763 67.6423276,109.045061 68.06,109.12 C69.37,109.12 69.69,109.73 69.69,110.64 L69.69,111.23 L66.87,111.43 C65.04,111.56 63.62,112.62 63.62,114.43 C63.62,116 64.8,117.43 67.09,117.43 C68.209055,117.519317 69.2994342,117.047194 70,116.17 C70.0842995,116.989194 70.8094409,117.589771 71.63,117.52 C72.0262431,117.523515 72.4174262,117.430866 72.77,117.25 M61.51,107.74 L59.21,107.74 L59.21,117.37 L61.56,117.37 L61.56,107.75 L61.51,107.74 Z M61.61,104 L59.13,104 L59.13,106.39 L61.61,106.39 L61.61,104 Z M57.47,109.87 L57.47,107.65 C57.2318855,107.611634 56.9911805,107.591575 56.75,107.59 C55.5896352,107.486511 54.4892404,108.122739 54,109.18 L53.8,107.74 L51.8,107.74 L51.8,117.37 L54.2,117.37 L54.2,112.52 C54.1153606,111.81815 54.3405577,111.114235 54.8168579,110.591841 C55.2931581,110.069447 55.9733376,109.780369 56.68,109.8 C56.9457118,109.803008 57.2104204,109.833165 57.47,109.89 M46.8,112.54 C46.8,113.93 46.43,115.65 44.62,115.65 C44.0114272,115.659554 43.4351137,115.376974 43.07,114.89 C42.6224547,114.19124 42.4088187,113.368216 42.46,112.54 C42.4081983,111.718013 42.6220548,110.901151 43.07,110.21 C43.432939,109.720407 44.0106886,109.437123 44.62,109.45 C46.43,109.45 46.8,111.16 46.8,112.55 M49,117.38 L49,104 L46.69,104 L46.69,108.41 C46.0230051,107.760022 45.1085687,107.428494 44.18,107.5 C43.3293344,107.475691 42.4972982,107.751856 41.83,108.28 C40.6279849,109.369778 39.9937466,110.951686 40.11,112.57 C40.0018532,114.15674 40.6286158,115.705213 41.81,116.77 C42.4739041,117.308722 43.305065,117.598744 44.16,117.59 C45.2183437,117.64634 46.2336939,117.164989 46.86,116.31 L47,117.36 L49,117.36 L49,117.38 Z M38.05,117.38 L38.05,110.96 C38.0817067,109.49446 37.1485181,108.181579 35.7539909,107.729798 C34.3594638,107.278018 32.8336939,107.794278 32,109 L31.83,107.76 L29.87,107.76 L29.87,117.39 L32.18,117.39 L32.18,113.47 C32.1165612,112.601356 32.2218299,111.728644 32.49,110.9 C32.7353681,110.187388 33.3966324,109.701399 34.15,109.68 C35.37,109.68 35.74,110.37 35.74,111.5 L35.74,117.4 L38,117.4 L38.05,117.38 Z M25.31,112.57 C25.3851436,113.432517 25.1433949,114.292858 24.63,114.99 C24.2447342,115.380871 23.718826,115.600938 23.17,115.600938 C22.621174,115.600938 22.0952658,115.380871 21.71,114.99 C20.797838,113.501999 20.797838,111.628001 21.71,110.14 C22.0952658,109.749129 22.621174,109.529062 23.17,109.529062 C23.718826,109.529062 24.2447342,109.749129 24.63,110.14 C25.1457592,110.839805 25.3876317,111.704143 25.31,112.57 M27.65,112.57 C27.7240039,111.281676 27.3218326,110.011099 26.52,109 C25.6628057,108.047365 24.4415207,107.503376 23.16,107.503376 C21.8784793,107.503376 20.6571943,108.047365 19.8,109 C18.2972046,111.131773 18.2972046,113.978227 19.8,116.11 C20.6571943,117.062635 21.8784793,117.606624 23.16,117.606624 C24.4415207,117.606624 25.6628057,117.062635 26.52,116.11 C27.319486,115.101526 27.7215186,113.834945 27.65,112.55 M16.65,117.36 L16.65,110.86 C16.65,108.86 15.58,107.49 13.53,107.49 C12.3468215,107.434344 11.2302179,108.03885 10.63,109.06 C10.1172234,108.026764 9.03043983,107.40631 7.88,107.49 C6.74888543,107.444126 5.68431095,108.024453 5.11,109 L4.92,107.72 L3,107.72 L3,117.35 L5.29,117.35 L5.29,112.09 C5.29,110.89 5.88,109.5 7.19,109.5 C8.35,109.5 8.67,110.19 8.67,111.37 L8.67,117.37 L11,117.37 L11,112.11 C11,110.91 11.57,109.52 12.88,109.52 C14.19,109.52 14.36,110.21 14.36,111.39 L14.36,117.39 L16.65,117.39 L16.65,117.36 Z M0,120 L96,120 L96,122 L0,122 L0,120 Z M18,144 L75,144 L75,146 L18,146 L18,144 Z" id="Shape"></path>
        </g>
    </g>
</svg>